<?xml version="1.0" encoding="utf-8"?>
<!-- Generator: Adobe Illustrator 19.0.0, SVG Export Plug-In . SVG Version: 6.00 Build 0)  -->
<svg version="1.1" id="Layer_1" xmlns="http://www.w3.org/2000/svg" xmlns:xlink="http://www.w3.org/1999/xlink" x="0px" y="0px"
	 viewBox="0 0 210.7 210.7" style="enable-background:new 0 0 210.7 210.7;" xml:space="preserve">
<style type="text/css">
	.st0{opacity:0.8;fill:#BEA870;}
	.st1{opacity:0.67;fill:#BEA870;}
	.st2{opacity:0.37;fill:#BEA870;}
	.st3{opacity:0.76;fill:#BEA870;}
	.st4{fill:url(#XMLID_95_);}
	.st5{opacity:0.38;fill:#BEA870;}
	.st6{opacity:0.29;fill:#BEA870;}
	.st7{opacity:0.64;fill:#BEA870;}
	.st8{opacity:0.53;fill:#BEA870;}
	.st9{opacity:0.51;fill:#BEA870;}
	.st10{fill:none;}
</style>
<g id="XMLID_1_">
	<path id="XMLID_2_" class="st0" d="M69.4,93.2c3.5-6.5,8.8-11.8,15.3-15.2C76.5,66.8,66.9,52.6,58,41.7
		C47.7,29.3,45.4,26.9,34.3,15.2c-2.8-3-11.6-11.3-16.2-9.1c-4.9,2.4-4.7,15.5-4.2,19.8c1.2,10.3,2.3,23.4,14,37.1
		C40.3,77.5,67.8,93.3,69.4,93.2z"/>
	<path id="XMLID_69_" class="st0" d="M194.4,51c-8.7,3.7-16.9,8.5-24.8,13.6C158.1,72.1,144,82.2,133,89.9c4.1,6,6.5,13.2,6.5,21
		c0,1.3-0.1,2.5-0.2,3.7c6.8-2.1,15.8-3.6,22-6.8c20-10.6,32.1-28.4,41.7-48.1C207,53,200.7,48.3,194.4,51z"/>
	<path id="XMLID_70_" class="st0" d="M48.4,114.3c-5.7,1.5-7.5,5.7-3.9,10.2c4.3,5.3,9.4,10.3,14.9,14.2c4.9,3.4,12,2,16.2-1.5
		c-6.6-6.7-10.7-15.9-10.8-26.1C60.3,111.8,53.4,113,48.4,114.3z"/>
	<path id="XMLID_71_" class="st0" d="M133.7,130.7c-4.1,6.6-10.2,11.8-17.5,14.7c1.9,3.4,5.6,6.8,9.5,6.3c6-0.8,13.1-1.6,15.2-8.5
		C142.6,137.8,137.1,133.8,133.7,130.7z"/>
	<path id="XMLID_72_" class="st1" d="M75,146.1c-5.2-0.1-9.3,4-9.2,9c0.1,4.6,4.5,9,9,9c5,0,9.1-4.1,9-9.3
		C83.8,149.7,80.2,146.2,75,146.1z"/>
	<path id="XMLID_73_" class="st2" d="M65.5,178.3c-5.3,0-8.9,3.4-9,8.5c-0.1,5,4.1,9.5,8.9,9.4c4.9-0.1,9.3-4.5,9.1-9.3
		C74.5,182,70.5,178.3,65.5,178.3z"/>
	<path id="XMLID_74_" class="st3" d="M97.8,149c-3.6,0.5-6,2.5-5.9,6.1c0.1,3.6,2.5,5.9,6.1,5.8c3.6-0.1,5.9-2.3,5.8-6
		C103.7,151.1,101.4,149.2,97.8,149z"/>
	<radialGradient id="XMLID_95_" cx="102.1624" cy="110.9218" r="30.4279" gradientUnits="userSpaceOnUse">
		<stop  offset="0" style="stop-color:#F2E8DB"/>
		<stop  offset="1" style="stop-color:#BDA76F"/>
	</radialGradient>
	<path id="XMLID_75_" class="st4" d="M71.7,110.9c0.1,17,13.4,30.4,30.3,30.4c17.2,0,30.7-13.6,30.6-30.8c-0.1-16.3-14-30.1-30.4-30
		C85.4,80.6,71.6,94.3,71.7,110.9z"/>
	<circle id="XMLID_76_" class="st5" cx="46.8" cy="182.8" r="4.5"/>
	<circle id="XMLID_77_" class="st6" cx="47.3" cy="200.9" r="3.9"/>
	<circle id="XMLID_78_" class="st7" cx="87.8" cy="169.8" r="3.9"/>
	<circle id="XMLID_79_" class="st8" cx="57.7" cy="165.1" r="7.7"/>
	<circle id="XMLID_80_" class="st9" cx="67.4" cy="171.4" r="3.4"/>
</g>
<rect id="XMLID_3_" class="st10" width="210.7" height="210.7"/>
</svg>
